<?xml version="1.0" encoding="UTF-8"?>
<svg id="Calque_1" xmlns="http://www.w3.org/2000/svg" version="1.1" viewBox="0 0 600 600">
  <!-- Generator: Adobe Illustrator 29.0.1, SVG Export Plug-In . SVG Version: 2.1.0 Build 192)  -->
  <defs>
    <style>
      .st0, .st1 {
        fill: none;
      }

      .st2 {
        fill: #fff;
      }

      .st3 {
        display: none;
      }

      .st1 {
        stroke: #fff;
        stroke-miterlimit: 10;
        stroke-width: 5px;
      }
    </style>
  </defs>
  <g class="st3">
    <path class="st2" d="M357.12,259.79l5.78,28.56c-.94,8.1,6.07,27.84,11.42,35.16-1.06-4.41,1.64-23.58,12.9-20.72,4.69,1.17,7.43,1.56,9.38,4.69s5.47,5.08,6.25,13.29c.78,8.21,0,21.5-1.17,26.19-1.26,9.38-3.33,17.74-13.29,15.64l-4.3-6.65-3.91-12.12-3.91-2.74c-5.34,5.06,4.3,33.1,2.93,41.05,0,7.82-2.02,25.75-5.01,32.32-9.54,20.96-16.64,33.91-42.88,38.64-13.39,30.49-39.26,36.23-57.4,34.88-27.27-2.03-35.3-17.09-35.3-17.09-74.29,19.48-63.56-111.76-88.6-94.51,0,0-.59,20.52-4.1,20.13,0,0-14.89-.7-17.01-31.86-2.01-29.61,11.67-13.75,11.67-13.75l4.75-.32c-1.21-5.01-10.22-41.11-10.95-45.15,0,0-21.89.2-29.32-.59s-5.28-5.47-5.28-5.47c0,0-.78-3.91-1.17,3.91s17.2,8.6,17.2,8.6c0,0,2.35,2.35-9.38,2.74-11.73.39-16.81-10.55-16.81-10.55-1.6,10.44,14.67,24.62,25.02,19.94l-11.34,2.35c-11.34,2.35-16.81-6.65-16.81-6.65,6.97,16,14.55,15.4,28.93,14.07t-8.99.78c-8.99.78-16.81,23.06-16.81,23.06,5.96-5.19,19.41-18.23,30.49-13.68,3.56,27.63,6.25,35.57,9.38,43.39s13.29,17.2,19.55,14.85,6.86-14.72,6.86-14.72c0,0,16.99,54.14,27.27,69.18,18.15,26.57,32.04,26.56,54.7,20.69,0,0,13.27,19.95,48.5,16.18,31.96-3.42,49.99-36.05,49.99-36.05,0,0,11.07-1.37,20.76-7.29,32.69-19.99,28.93-78.97,28.93-78.97,15.98,8.08,22.8-11.51,24.24-38.31.78-22.28-12.51-34.4-12.51-34.4.24-8.1,31.81-17.29,33.62-1.56,0,0,.99-3.56-.92-6.61-5.44-8.67-22.85-3.89-22.85-3.89,0,0,.98.31,18.3-14.52-3.4,2.91-24.98,17.05-31.82,9.96,11.55-.88,25.98-11.23,26.74-23.64-3.69,6.82-27.57,20.33-41.15,5.04,0,0-2.8-4.82-3.21-10.67l-19.36,7.2h0Z"/>
    <path class="st2" d="M384.43,347.48s.89,2.89,3.11,3.11,4.44-1.78,4.44-1.78c0,0,3.56-3.11,3.78-7.11s-4.44-7.11-7.11-12.67-1.33-10.89,1.78-11.56,5.33,11.56,5.33,11.56c0,0,3.33-12.67.22-15.11s-8.89-3.78-11.56-.89-3.11,21.33-3.11,21.33c0,0,5.56,3.33,4.89,6.67s-1.78,6.44-1.78,6.44Z"/>
    <path class="st2" d="M145.64,385.3s-.5,2.28-2.2,2.59-3.54-1.09-3.54-1.09c0,0-2.94-2.18-3.36-5.25s2.98-5.76,4.69-10.21.35-8.48-2.1-8.8-3.39,9.25-3.39,9.25c0,0-3.36-9.56-1.12-11.64s6.62-3.47,8.86-1.41,3.74,16.26,3.74,16.26c0,0-4.08,2.92-3.35,5.45s1.77,4.86,1.77,4.86Z"/>
    <path class="st2" d="M326.1,369.54c-2.65-4.67-4.52-13.08-4.52-13.08,0,0-2.75,1.47-3.89,5.14-1.4,4.52,1.71,10.28,1.71,10.28,0,0-9.19,14.79-48.27,25.07-31.9,8.39-52.94,1.71-52.94,1.71,0,0-.62-1.4-1.4-4.05-.78-2.65-4.52-4.83-4.52-4.83,0,0,.47,11.06-1.87,15.57-2.34,4.52-8.25,10.59-8.25,10.59,0,0,5.61-.31,9.19-1.87s5.45-5.92,5.45-5.92c0,0,20.59,6.41,25.69,19.31,5.92,14.95,13.08,19.46,23.82,18.53,3.59-.31,12.92-5.92,12.92-5.92,0,0,8.41,1.09,15.42-2.8,7.01-3.89,8.88-17.75,8.88-17.75l7.01-22.89s3.89-10.59,6.07-14.17,6.38-7.16,6.38-7.16c0,0,.78.47,5.29.93,4.52.47,5.76-1.09,5.76-1.09,0,0-5.29-.93-7.94-5.61ZM271.29,416.41c-28.5,6.38-40.64-11.52-40.64-11.52,0,0,21.33,4.98,38.62.62,17.28-4.36,36.59-16.66,36.59-16.66,0,0-6.07,21.18-34.57,27.56Z"/>
    <path class="st2" d="M173.15,322.16l4.96,5.07-.65-6.65c3.41-1.18,8.06-.8,11.07.81,1.8.96,5.39,2.87,6.85,7.57,1.11,3.59.81,5.66-.25,8.84,0,0,3.93-.76,10.56,1.2,5.32,1.57,8.27,7.58,8.08,9.81,0,0-11.41-6.56-23.66-4.04-9.84,2.02-14.92,6.55-17.89,9.23,0,0,2.18-5.46,5.39-9.14,0,0-5.29,1.44-9.52-4.42-2.95-4.1-2.17-9.8-.97-12.36,1.32-2.83,4.63-5.39,6.04-5.91Z"/>
    <path class="st2" d="M304.54,317.4s-4.9,2.89-7.78,6.92c-2.43,3.4-3.22,10-3.22,10,0,0,3.67-11.44,23.33-15.33,20.17-3.99,39.33-.67,39.33-.67,0,0-7.03-5.39-15.14-6.5-6-.82-8.86-.83-10.08-.72,0,0,3.98-3.77,3.56-8.78-.38-4.45-3.04-7.63-4-8.67-6.15-6.62-16.3-4.62-17.67-4.33-1.96.42-8.7,1.85-12.33,8-.46.79-3.11,5.49-2,11,1.46,7.21,6,9.08,6,9.08Z"/>
    <path class="st2" d="M179.39,352.38c.13-.83,4.49.34,10.85-1.78,5.05-1.69,7.31-4.1,7.81-3.55.66.72-2.17,6.13-7.16,7.84-5.54,1.9-11.66-1.5-11.5-2.51Z"/>
    <path class="st2" d="M318.67,327.25c4.59-.76,7.57-5.24,7.57-5.24,0,0-2.89,1.47-8.15,2.3-5.31.85-8.44.32-8.44.32,0,0,4.33,3.4,9.02,2.62Z"/>
    <path class="st2" d="M297.11,312.8c.63.48.16,1.17.88,2.56.81,1.55,1.98,1.81,1.85,2.28-.19.7-3.09,1-5.64-.06-2.6-1.08-4.59-3.45-4.19-4.14.2-.34.82,0,2.47-.08,2.76-.13,3.8-1.21,4.64-.56Z"/>
    <path class="st2" d="M198,332.85c-.89.08-.25,3.16-.25,3.16,0,.01.02,0,.03,0,.54.09,3.36.33,4.71-.27,2.89-1.29,4.35-4.08,4.4-4.29,0,0-2.14,1.88-5.09,1.73-1.78-.09-2.75-.42-3.79-.32Z"/>
    <path class="st2" d="M228.32,347.32c1.64-.51,2.74,4.26,6.78,6.56,6.05,3.44,15.43-.54,16.78-1.11.85-.36,3.2-1.42,6.56-2.22,2.39-.57,5.25-1.26,5.78-.33.61,1.08-2.1,4.05-4,5.67-.09.07-.26.22-.47.39-2.74,2.16-5.7,3.14-6.97,3.5-3.04.87-5.09.79-9,2.22-.49.18-1.14.43-1.11.67.06.55,3.74.92,6.78.44,2.43-.38,4.07-1.25,11.78-6.56,5.46-3.76,6.4-4.54,8.78-5.33,4.33-1.45,7.28-.88,8.22-.67,2.98.69,6.24,2.59,6,3.78-.22,1.09-3.18.58-7.33,1.89-3.81,1.21-4.21,2.56-10.78,6.89-5.09,3.35-7.63,5.03-11.11,6-3.01.84-6.61,1.84-10.67.78-1.42-.37-2.32-.85-4.11-.89-2.55-.06-3.38.85-6.56,1.67-2.03.53-5,1.29-8.33.44-1.42-.36-3.93-1-5-3.22-.12-.26-1.18-2.27-.33-3.44.91-1.25,3.05-.26,7.56-.67.69-.06,5.63-.51,5.78-1.78.12-.97-2.74-1.05-4.78-3.67-2.41-3.08-1.69-7.13-1.56-7.89.26-1.48.5-2.85,1.33-3.11Z"/>
    <path class="st2" d="M208.76,403.21"/>
    <path class="st2" d="M313.65,395.65"/>
    <path class="st1" d="M245.31,256.08"/>
  </g>
  <path class="st1" d="M191.69,105.08"/>
  <g>
    <path class="st2" d="M312.79,279.14c3.86,6.45,5.1,7.89,14.15,9.43-1.93-8.05-3.09-9.58-14.15-9.43Z"/>
    <path class="st2" d="M347.37,294.86c4.71,1.57,9.43,3.14,14.15,4.72,9.17-3.23,14.06-4.84,15.72-11-9.95,2.1-19.91,4.19-29.86,6.29Z"/>
    <path class="st2" d="M314.37,335.73c-13.3-2.21-21.17,3.13-29.86,9.43,2.1-3.14,4.19-6.29,6.29-9.43-22.15,3.48-39.78,14.88-58.16-4.72-3.83,12.82,1.49,16.96,7.86,23.58-6.81,1.05-13.62,2.1-20.43,3.14,1.05,3.14,2.1,6.29,3.14,9.43,49.3,8.61,62.77-18.7,97.45-23.58v-1.57c-2.1-2.1-4.19-4.19-6.29-6.29Z"/>
    <path class="st2" d="M190.19,334.16c-9.95,2.62-19.91,5.24-29.86,7.86,2.62,1.57,5.24,3.14,7.86,4.72,6.29-1.05,12.58-2.1,18.86-3.14,2.62-3.14,5.24-6.29,7.86-9.43h-4.72Z"/>
    <path class="st2" d="M279.79,346.73c-7.33,3.14-14.67,6.29-22.01,9.43,4.36,1.88,25.22-7.11,22.01-9.43Z"/>
    <path class="st2" d="M411.82,312.15c-4.47,9.85-.58,24.9-4.72,36.15-60.42,49.81-127.3,68.7-224.77,58.16-3.14-5.76-6.29-11.53-9.43-17.29-1.57-.52-3.14-1.05-4.72-1.57-1.24,27.84-3.45,41.17-20.43,56.59v1.57c16.62-.28,24.05-6.43,29.86-17.29,26.82,5.01,43.27,36.17,59.73,53.44,7.99,7.97,42.06,38.98,70.73,29.86,15.73-5,27.95-4.25,39.3-12.57,37.5-30.11,30.44-104.18,66.01-141.46,8.91-.52,17.81-1.05,26.72-1.57-18.3-21.82-17.97-7.73-28.29-44.01ZM364.66,408.04c-36.74,44.45-106.85,53.8-154.03,12.57,61.63,9.12,134.08-.24,166.61-34.58,1.67,8.77-7.19,15.73-12.58,22.01Z"/>
    <path class="st2" d="M364.66,494.48c-12.95,17.69-38.14,21.07-62.87,26.72-1.05,1.57-2.1,3.14-3.14,4.72,17.46,19.54,81.32-10.61,66.02-31.44"/>
    <path class="st2" d="M508.35,259.81c-1.05.52-2.1,1.05-3.14,1.57-12.47,23.18,1.19,32.72,0,56.59,3.14,1.05,6.29,2.1,9.43,3.14,14.39-14.77,3.31-26.97-4.72-40.87.52-2.62,1.05-5.24,1.57-7.86,2.1-1.05,4.19-2.1,6.29-3.14,4.17,4.62,4.97,9.38,4.72,18.86,8.86-10.08,4.41-31.09-14.15-28.29Z"/>
    <path class="st2" d="M71,366.64c1.17-.01,2.34-.03,3.51-.04,21.7,14.91,13.91,29.64,25.89,50.32-2.32,2.37-4.63,4.74-6.95,7.11-19.56-6.55-15.28-22.47-14.5-38.5-1.66-2.09-3.33-4.18-4.99-6.27-2.34.03-4.69.05-7.03.08-1.59,6.01-.13,10.62,4.44,18.93-12.49-4.91-18.15-25.62-.36-31.63Z"/>
    <path class="st0" d="M344.21,255.04c-1.57.52-3.14,1.05-4.72,1.57v4.72h4.72c.84-5.8,4.79-3.58,0-6.29Z"/>
    <path class="st2" d="M157.5,299.58c-1.57-1.57-8.17-11.48-9.74-13.05-9.28,5.34-12.96,7.95-16.27,19.34,3.39,9.64,4.88,13.72,12.57,18.86-1.82,5.15-3.78,10.16-3.14,15.72,35.38-14.47,42.4-16.29,77.02-9.43-5.74-11.83-10.91-18.56-28.29-18.86-1.13-17.93-9.33-22.27-20.43-29.86-1.05,0-12.24,1.57-13.29,1.57,0,0,2.1,13.1,1.57,15.72Z"/>
    <path class="st2" d="M376.69,272.86c2.3-14.28-.16-20.43-7.86-28.29-10.62-11.41-48.96-1.94-50.3,20.43,1.05,4.71,2.1,9.43,3.14,14.15,9.08,9.14-5.95,13.32-9.43,29.86,24.55-12.91,56.65-37.93,99.02-23.58v-1.57c-7.39-8.09-18.52-11.51-34.58-11ZM344.21,261.33h-4.72v-4.72c1.57-.52,3.14-1.05,4.72-1.57,4.79,2.71.84.48,0,6.29Z"/>
    <path class="st2" d="M204.34,310.58c3.72-5.2,6.66-8.79,6.29-14.15-4.19,3.67-8.38,7.34-12.57,11,.52,1.05,1.05,2.1,1.57,3.14h4.72Z"/>
    <g>
      <path class="st0" d="M147.75,220.77c.6-.95,1.12-1.97,1.57-3.05-12.56.23-20.74-.48-25.97-1.39-.45,1.72-.65,3.44-.53,5.13.38,5.16,1.9,10.39,3.81,15.14,8-4.05,17.21-9.71,21.11-15.84Z"/>
      <path class="st0" d="M453.29,197.87c-.73-4.39-2.13-9.35-4.57-14.82-10.13-22.7-41.22-39.12-41.22-39.12,0,0-19.56,1.75-10.13,33.53,5.76,19.41,34.45,21.63,55.92,20.41Z"/>
      <path class="st0" d="M459.35,167.96c2.13,3.66,3.82,8.61,3.69,15.09-.1,4.68-1.07,9.59-2.41,14.26,4.83-.46,8.97-1.03,11.97-1.5-2.39-8.67-5.24-16.61-8.86-23.19l-4.4-4.66Z"/>
      <path class="st0" d="M151.62,208.3c1.24-10.95-1.2-22.46-1.2-22.46,0,0-19.5,13.01-25.73,26.77,7.13-.73,17.08-2.04,26.93-4.31Z"/>
      <path class="st0" d="M493.48,281.19c-1.7.35-1.19.25-2.89.6-6.21-18.3-9.17-46.1-14.43-71.1-4.44,2.02-11.94,4.46-22.89,5.06-1.25,2.49-2.11,3.97-2.11,3.97,0,0,.75-1.37,1.47-3.94-6.75.32-14.77-.05-24.18-1.65-37.02-6.29-55.89-27.94-55.89-27.94,0,0,1.75,9.78-16.42,20.61-18.16,10.83-41.22,19.91-41.22,19.91,0,0,43.66-25.85,38.77-47.85-4.89-22.01-18.51-37.02-18.51-37.02,0,0,10.48,56.59-45.06,76.49-55.54,19.91-76.84,21.39-76.84,21.39,0,0,42.26-11.26,70.91-44.79,28.64-33.53,17.46-43.31,17.46-43.31,0,0-13.22,25.15-48,45.06-34.78,19.91-99.22,34.23-99.22,34.23,0,0,60.6-27.94,79.81-44.71,19.21-16.77,15.72-25.5,15.72-25.5,0,0-32.28,45.83-73.57,54.83-2.08,1.43-4.32,2.84-6.76,4.2-18.32,10.2-32.44,15.94-42.04,19.15,4.07,9.25,9.21,16.17,9.21,16.17,0,0-26.9-1.98-32.13-15.33-5.24-13.35-8.73-32.56-8.73-32.56,0,0-14.32,13.97-10.48,27.59,3.84,13.62,26.2,34.18,26.2,34.18,0,0-27.91-10.43-31.59-23.01-3.68-12.57-5.78-24.1-5.78-24.1l-3.35,43.9c-2.48,31.78,21.29,81.26,25.92,112.34-1.67.47-1.17.33-2.85.79-11.78-28.54-36.25-33.44-44.76-6.43,0,0,4.86,30.49,36.99,77.67,4.03,5.37,15.33,14.73,20.84,6.95,5.19-11.12,2.17-23.5-2.17-37.77,1.32-3.03,2.63-6.07,3.95-9.1.77-.08.96-.1,1.73-.18,16.7,24.21,18.91,56.39,40.77,86.14,29.1,39.61,73.3,74.19,119.8,55.03,31.9,19.2,57.49,25.53,94.25,15.62,21.27-8.24,46.31-44.51,49.38-51.32,50.12-4.23,73.6-55.2,81.35-103.74,5.87-36.72-7.12-66.5-3.07-95.88h1.53c2.75,2.3,4.94,4.12,7.7,6.42,2.66,14.62,5.65,26.96,15.33,34.45,8.46,4.39,14.22-9.1,15.35-15.72,6.99-56.65-2.64-85.99-2.64-85.99-19.92-20.12-39.44-4.58-36.86,26.19Z"/>
      <path class="st2" d="M558.68,323.04c12.48.89,27.83-5.35,34.97-17.58,0-.01-24.89,8.18-47.48-5.19-.36-19.62-2.65-37.79-5.02-45.72-1.23-4.11,18.03-12.4,24.06-28.71-47.5,11.35-46.99-.84-49.08.22,19.12-9.69,28.47-22.75,30.56-27.99-1.57,1.05-25.32,15.19-40.17,1.75,19.56-3.14,26.65-23.03,26.55-26.55,0,0-9.08,15.02-28.47,16.77-1.64-7.4-17.29-68.11-17.29-68.11-6.6-11.66-23.36-56.19-84.35-89.07C342.71.37,277.01,4.56,204.36,24.47c-72.65,19.91-79.66,24.1-133.57,79.64-30.43,31.35-29.86,114.74-29.86,114.74,4.23,35.33.78,94.18-37.33,75.05,4.04,2.03,16.37,24.62,39.16,28.69-3.41,13.23-33.07,7.19-35.89,6.29,2.61,2.78,17.94,15.85,33.27,18.08-3.29-.67-17.55,16.42-30.65,9.46,9.02,4.79,14.93,12.41,33.53,2.9-1.68.86-4.38,13.43-3.59,17.65.07.38.15.79.25,1.21,1.9,8.69,15.57,36.63,15.57,36.63,19.5,43.87-21.99,52.63-21.97,52.64,10.9,5.35,22.96,3.91,29.39-1.11,3.06,8.4-13,14.52-17.59,13.93,4.2.54,14.51,6.34,31.69-5.78,2.93,4.78-6.7,17.61-20.26,16.27,9.3.92,26.15,3.99,43.9-19.22,0,0,11.05.39,17.26-10.18,15.7,37.27,35.94,68.13,66.55,88.58,26.91,22.1,70.6,19.8,89.11,11.31,51.62,27.31,105.59,26.31,130.34-16.33,0,0,11.7-15.84,17.12-22.35,20.34-.92,56.95-16.01,70.76-47.97,17.87-32.19,21.75-68.89,18.66-109.21,12.84,8.14,17.8,3.89,26.72-4.89.61-1.05,1.17-2.2,1.71-3.39,31.68,4.53,43.32-7.84,51.82-13.76-14.27,9.94-38.32,3.34-39.77-3.25,32.04,1.1,38.05-11.2,42.35-14.41-4.69,3.5-29.38,7.63-34.34-2.63ZM472.6,195.81c-3,.47-7.14,1.04-11.97,1.5,1.34-4.66,1.14-14.79.66-19.44-.79-7.74-5.03-15.79-7.16-19.44l9.61,14.2c3.62,6.57,6.47,14.52,8.86,23.19ZM407.5,143.93s31.09,16.42,41.22,39.12c2.44,5.47,3.84,10.44,4.57,14.82-21.46,1.22-50.16-1-55.92-20.41-9.43-31.79,10.13-33.53,10.13-33.53ZM122.83,221.47c-.13-1.69.08-3.41.53-5.13,5.23.91,13.41,1.62,25.97,1.39-.45,1.07-.97,2.1-1.57,3.05-3.9,6.13-13.11,11.79-21.11,15.84-1.91-4.75-3.43-9.98-3.81-15.14ZM150.42,185.84s2.44,11.51,1.2,22.46c-9.85,2.27-19.8,3.58-26.93,4.31,6.23-13.76,25.73-26.77,25.73-26.77ZM532.98,340.99c-1.13,6.62-6.89,20.11-15.35,15.72-9.68-7.49-12.67-19.83-15.33-34.45-2.75-2.3-4.94-4.12-7.7-6.42h-1.53c-4.05,29.38,8.94,59.16,3.07,95.88-7.75,48.54-31.23,99.51-81.35,103.74-3.07,6.81-28.12,43.08-49.38,51.32-36.76,9.91-62.36,3.58-94.25-15.62-46.5,19.17-90.7-15.42-119.8-55.03-21.86-29.75-24.07-61.93-40.77-86.14-.77.08-.96.1-1.73.18-1.32,3.03-2.63,6.07-3.95,9.1,4.34,14.27,7.36,26.65,2.17,37.77-5.51,7.77-16.81-1.59-20.84-6.95-32.13-47.17-36.99-77.67-36.99-77.67,8.51-27.01,32.97-22.11,44.76,6.43,1.67-.47,1.17-.33,2.85-.79-4.63-31.08-28.4-80.55-25.92-112.34l3.35-43.9s-.54,1.75,3.15,14.32c3.68,12.57,34.23,32.79,34.23,32.79,0,0-22.35-20.56-26.2-34.18-3.84-13.62,10.48-27.59,10.48-27.59,0,0-1.57,11.62,3.67,24.97,5.24,13.35,37.2,22.92,37.2,22.92,0,0-5.14-6.92-9.21-16.17,9.6-3.21,23.72-8.95,42.04-19.15,2.44-1.36,4.69-2.76,6.76-4.2,41.29-9,73.57-54.83,73.57-54.83,0,0-3.14,18.86-22.35,35.63-19.21,16.77-73.18,34.58-73.18,34.58,0,0,61.45-14.84,96.23-34.75,34.78-19.91,59.2-55.36,59.2-55.36,0,0,2.97,20.61-25.67,54.14-28.64,33.53-70.91,44.79-70.91,44.79,0,0,19.14-2.3,71.6-23.37,36.12-14.51,50.3-74.51,50.3-74.51,0,0,13.62,15.02,18.51,37.02,4.89,22.01-38.77,47.85-38.77,47.85,0,0,23.24-8.77,41.22-19.91,13.97-8.66,17.12-14.84,17.12-14.84,0,0,18.16,15.89,55.19,22.18,9.41,1.6,17.43,1.97,24.18,1.65-.72,2.57-1.47,3.94-1.47,3.94,0,0,.86-1.49,2.11-3.97,10.95-.6,18.44-3.04,22.89-5.06,5.25,25,8.21,52.8,14.43,71.1,1.7-.35,1.19-.25,2.89-.6-2.58-30.77,16.94-46.31,36.86-26.19,0,0,9.63,29.34,2.64,85.99Z"/>
    </g>
  </g>
</svg>