<?xml version="1.0" encoding="UTF-8"?>
<svg id="Calque_1" data-name="Calque 1" xmlns="http://www.w3.org/2000/svg" version="1.1" viewBox="0 0 600 600">
  <defs>
    <style>
      .cls-1, .cls-2 {
        fill: #D9D9D6;
        stroke-width: 0px;
      }

      .cls-2 {
        fill-rule: evenodd;
      }
    </style>
  </defs>
  <path id="Mark" class="cls-2" d="M-324.75,1c-164.92,0-298.25,136.58-298.25,305.55,0,135.07,85.43,249.4,203.93,289.87,14.82,3.04,20.24-6.57,20.24-14.66,0-7.08-.49-31.36-.49-56.66-82.96,18.22-100.24-36.42-100.24-36.42-13.33-35.41-33.09-44.51-33.09-44.51-27.15-18.72,1.98-18.72,1.98-18.72,30.12,2.02,45.93,31.36,45.93,31.36,26.66,46.54,69.62,33.39,86.9,25.29,2.47-19.73,10.37-33.39,18.77-40.97-66.17-7.08-135.79-33.39-135.79-150.76,0-33.39,11.84-60.7,30.61-81.95-2.96-7.59-13.33-38.96,2.97-80.94,0,0,25.18-8.1,81.96,31.36,24.31-6.69,49.38-10.09,74.56-10.12,25.18,0,50.85,3.54,74.56,10.12,56.79-39.46,81.97-31.36,81.97-31.36,16.3,41.99,5.92,73.36,2.96,80.94,19.26,21.24,30.62,48.56,30.62,81.95,0,117.37-69.62,143.16-136.28,150.76,10.87,9.61,20.24,27.82,20.24,56.66,0,40.97-.49,73.86-.49,83.97,0,8.1,5.43,17.71,20.24,14.68C-112.43,555.95-27,441.62-27,306.55-26.51,137.58-160.33,1-324.75,1Z"/>
  <g>
    <path class="cls-1" d="M421.9,504.27c0-1.67,0-3.31,0-4.96,0-48.6.02-97.2-.01-145.8,0-11.25-2.6-21.94-7.48-32.07-2.29-4.77-5.22-9.13-8.9-12.95-6.69-6.94-14.83-10.92-24.39-12.18-5.42-.71-10.77-.55-16.1.58-9.28,1.98-16.85,6.81-23,13.95-5.97,6.93-9.89,14.97-12.71,23.6-1.51,4.63-2.29,9.33-2.28,14.26.08,49.85.05,99.69.04,149.54,0,1.63.27,3.3-.42,5.03-.84.1-1.64.27-2.44.29-17.71.5-78.21.21-82.42-.41-.09-.71-.24-1.5-.27-2.28-.05-1.11-.02-2.21-.02-3.32,0-86.4,0-172.8,0-259.2,0-1.78.04-3.56.06-5.18,1.5-1.09,2.93-.71,4.26-.72,11.91-.03,23.81-.02,35.72-.02h44.53c1.27,1.13.98,2.3.99,3.37.03,7.2.01,14.4.01,21.6,0,1.37,0,2.74,0,4.69.85-.61,1.33-.81,1.59-1.17,13.2-17.77,31.14-28.35,52.17-34.07,14.14-3.84,28.61-5.14,43.21-4.19,18.4,1.21,34.78,7.54,48.44,20.23,8.21,7.63,14.5,16.69,19.47,26.69,6.02,12.12,9.84,24.94,12.28,38.21,2.29,12.42,3.24,24.97,3.24,37.6,0,51.51,0,103.02-.01,154.53,0,1.49.23,3.02-.16,4.06-.41.47-.49.6-.6.67-.11.07-.26.11-.39.11-1.24.05-2.48.14-3.73.14-26.44-.02-52.88-.05-79.33-.09-.25,0-.5-.18-1.37-.53Z"/>
    <path class="cls-1" d="M100.11,503.24c-.16-.52-.38-.9-.38-1.28-.02-89.3-.02-178.59,0-267.89,0-.38.21-.77.27-.98.23-.24.31-.37.43-.43.12-.07.26-.1.4-.1.97-.05,1.93-.13,2.9-.13,26.72.02,53.43.04,80.15.08.25,0,.51.17,1.03.35.1.65.27,1.43.32,2.22.06,1.1.02,2.21.02,3.32,0,86.39,0,172.78,0,259.17v5.55c-1.02.18-1.79.38-2.57.43-.96.07-1.94.02-2.91.02-24.92,0-49.83,0-74.75,0-1.63,0-3.29.21-4.89-.33Z"/>
    <path class="cls-1" d="M142.68,95.12c26.31-.21,50.06,21.33,49.83,50.39-.23,28.66-23.74,49.74-50.23,49.66-25.74-.08-49.82-20.54-49.82-50.05,0-29.74,24.45-50.44,50.22-50Z"/>
  </g>
</svg>