<?xml version="1.0" encoding="UTF-8"?>
<svg id="Calque_1" data-name="Calque 1" xmlns="http://www.w3.org/2000/svg" version="1.1" viewBox="0 0 600 600">
  <defs>
    <style>
      .cls-1 {
        fill: #1c1c1c;
        fill-rule: evenodd;
        stroke-width: 0px;
      }
    </style>
  </defs>
  <path id="Mark" class="cls-1" d="M300.25,2C135.32,2,2,138.58,2,307.55c0,135.07,85.43,249.4,203.93,289.87,14.82,3.04,20.24-6.57,20.24-14.66,0-7.08-.49-31.36-.49-56.66-82.96,18.22-100.24-36.42-100.24-36.42-13.33-35.41-33.09-44.51-33.09-44.51-27.15-18.72,1.98-18.72,1.98-18.72,30.12,2.02,45.93,31.36,45.93,31.36,26.66,46.54,69.62,33.39,86.9,25.29,2.47-19.73,10.37-33.39,18.77-40.97-66.17-7.08-135.79-33.39-135.79-150.76,0-33.39,11.84-60.7,30.61-81.95-2.96-7.59-13.33-38.96,2.97-80.94,0,0,25.18-8.1,81.96,31.36,24.31-6.69,49.38-10.09,74.56-10.12,25.18,0,50.85,3.54,74.56,10.12,56.79-39.46,81.97-31.36,81.97-31.36,16.3,41.99,5.92,73.36,2.96,80.94,19.26,21.24,30.62,48.56,30.62,81.95,0,117.37-69.62,143.16-136.28,150.76,10.87,9.61,20.24,27.82,20.24,56.66,0,40.97-.49,73.86-.49,83.97,0,8.1,5.43,17.71,20.24,14.68,118.51-40.48,203.93-154.8,203.93-289.87C598.49,138.58,464.67,2,300.25,2Z"/>
</svg>