<?xml version="1.0" encoding="UTF-8"?>
<svg id="Layer_1" xmlns="http://www.w3.org/2000/svg" version="1.1" viewBox="0 0 600 400">
  <!-- Generator: Adobe Illustrator 29.0.1, SVG Export Plug-In . SVG Version: 2.1.0 Build 192)  -->
  <path d="M59.87,383.93c6.17-9.27,12.97-20.24,20.39-32.9,7.41-12.67,14.51-25.8,21.31-39.38,6.79-13.6,12.97-26.87,18.53-39.84,5.56-12.97,9.87-24.71,12.97-35.21H1.5V16.07h284.46v178.83c0,17.3-2.01,34.91-6.02,52.81-4.02,17.91-9.12,35.21-15.29,51.89-6.18,16.68-12.97,32.27-20.39,46.79-7.41,14.5-14.21,27.01-20.38,37.53H59.87Z"/>
  <path d="M372.41,383.93c6.17-9.27,12.97-20.24,20.39-32.9,7.41-12.67,14.51-25.8,21.31-39.38,6.79-13.6,12.97-26.87,18.53-39.84,5.56-12.97,9.87-24.71,12.97-35.21h-131.57V16.07h284.46v178.83c0,17.3-2.01,34.91-6.02,52.81-4.02,17.91-9.12,35.21-15.29,51.89-6.18,16.68-12.97,32.27-20.39,46.79-7.41,14.5-14.21,27.01-20.38,37.53h-164.01Z"/>
</svg>