<?xml version="1.0" encoding="utf-8"?>
<!-- Generator: Adobe Illustrator 27.9.0, SVG Export Plug-In . SVG Version: 6.00 Build 0)  -->
<svg version="1.1" id="Calque_1" xmlns="http://www.w3.org/2000/svg" xmlns:xlink="http://www.w3.org/1999/xlink" x="0px" y="0px"
	 viewBox="0 0 270.85 77.28" style="enable-background:new 0 0 270.85 77.28;" xml:space="preserve">
<g>
	<path d="M3.64,3.59h47.37v34.66H35.21V10.25h-0.74v28.01H20.19V10.25h-0.74v28.01H3.64V3.59z"/>
	<path d="M70.66,31.32h-0.74v6.93H51.75V3.59h37.07v34.66H70.66V31.32z M69.92,24.62h0.74V10.25h-0.74V24.62z"/>
	<path d="M119.65,38.26H89.56V3.59h18.16v2.22h18.67v6.75h-18.67v19h0.42c0.19,0,0.32-0.32,0.32-0.65V13.3h17.93v18.3
		C126.39,35.34,123.62,38.26,119.65,38.26z"/>
	<path d="M146.03,30.63h-0.74v7.63h-18.16V3.59h18.16v20.34h0.74V3.59h18.16v34.66h-18.16V30.63z"/>
	<path d="M164.93,38.26V3.59h19.69v34.66H164.93z"/>
	<path d="M222.2,38.26h-36.84V3.59h36.84v19.6h-17.93V10.25h-0.74v13.68h18.67v6.7h-18.67v0.74h18.67V38.26z"/>
	<path d="M222.93,3.59h18.16V31.6h0.74V3.59H260v34.66h-37.07V3.59z"/>
	<path d="M3.64,39.02h18.16v27.96h0.74V46.65h17.93v27.04H3.64V39.02z"/>
	<path d="M60.07,66.76h-0.74v6.93H41.17V39.02h37.07v34.66H60.07V66.76z M59.33,60.05h0.74V45.68h-0.74V60.05z"/>
	<path d="M97.14,66.76v6.93H78.97V39.02h37.07v18.81c0,2.17-0.92,4.02-2.45,5.22h2.5v10.63H97.92v-6.93H97.14z M97.55,60.05
		c0.19,0,0.32-0.32,0.32-0.65V45.68h-0.74v14.37H97.55z"/>
	<path d="M134.99,66.76v6.93h-18.16V39.02h37.07v18.81c0,2.17-0.92,4.02-2.45,5.22h2.5v10.63h-18.16v-6.93H134.99z M135.4,60.05
		c0.19,0,0.32-0.32,0.32-0.65V45.68h-0.74v14.37H135.4z"/>
	<path d="M154.63,45.82c0-4.07,2.5-6.79,6.89-6.79h30.18V66.9c0,4.07-2.5,6.79-6.93,6.79h-30.13V45.82z M173.11,66.99
		c0.28,0,0.42-0.37,0.42-0.79V45.68h-0.32c-0.28,0-0.42,0.42-0.42,0.83v20.48H173.11z"/>
	<path d="M192.39,39.02h18.16v28.01h0.74V39.02h18.16v34.66h-37.07V39.02z"/>
	<path d="M230.19,66.8h18.49c0.28,0,0.42-0.32,0.42-0.6v-0.14h-18.9V39.02h18.16v20.34h0.74V39.02h18.16V66.9
		c0,3.93-2.5,6.79-6.93,6.79h-30.13V66.8z"/>
</g>
</svg>
