<?xml version="1.0" encoding="utf-8"?>
<!-- Generator: Adobe Illustrator 27.9.0, SVG Export Plug-In . SVG Version: 6.00 Build 0)  -->
<svg version="1.1" id="Calque_1" xmlns="http://www.w3.org/2000/svg" xmlns:xlink="http://www.w3.org/1999/xlink" x="0px" y="0px"
	 viewBox="0 0 346.85 77.28" style="enable-background:new 0 0 346.85 77.28;" xml:space="preserve">
<g>
	<path d="M45.81,35.72v2.36H27.6V3.33h36.93v24.98H46.55V10h-0.74v19.05h18.72v6.67H45.81z"/>
	<path d="M83.4,31.13v6.95H65.19V3.33h37.16v18.86c0,2.18-0.93,4.03-2.46,5.24h2.5v10.66H84.19v-6.95H83.4z M83.81,24.41
		c0.19,0,0.32-0.32,0.32-0.65V10H83.4v14.41H83.81z"/>
	<path d="M103.05,10.14c0-4.08,2.5-6.81,6.9-6.81h30.26v27.94c0,4.08-2.5,6.81-6.95,6.81h-30.21V10.14z M121.58,31.37
		c0.28,0,0.42-0.37,0.42-0.79V10h-0.32c-0.28,0-0.42,0.42-0.42,0.83v20.53H121.58z"/>
	<path d="M140.87,3.33h37.16v34.75h-18.21V10h-0.74v28.08h-18.21V3.33z"/>
	<path d="M208.9,38.08h-30.17V3.33h18.21v2.22h18.72v6.77h-18.72v19.04h0.42c0.19,0,0.32-0.32,0.32-0.65V13.06h17.98v18.35
		C215.66,35.17,212.88,38.08,208.9,38.08z"/>
	<path d="M216.27,24.37h12.97v7.6h-12.97V24.37z"/>
	<path d="M266.78,38.08h-36.93V3.33h36.93v19.65H248.8V10h-0.74v13.72h18.72v6.72h-18.72v0.74h18.72V38.08z"/>
	<path d="M267.48,3.33h37.16v34.75h-18.21V10h-0.74v28.08h-18.21V3.33z"/>
	<path d="M305.34,3.33h37.21v28.08c0,3.75-2.83,6.67-6.81,6.67h-30.4V3.33z M323.55,10v21.36h0.42c0.19,0,0.32-0.32,0.32-0.65V10
		H323.55z"/>
	<path d="M3.55,38.79h37.21v28.08c0,3.75-2.83,6.67-6.81,6.67H3.55V38.79z M21.76,45.46v21.36h0.42c0.19,0,0.32-0.32,0.32-0.65
		V45.46H21.76z"/>
	<path d="M78.34,73.54H41.41V38.79h36.93v19.65H60.37V45.46h-0.74v13.72h18.72v6.72H59.62v0.74h18.72V73.54z"/>
	<path d="M79.04,38.79h18.21v28.03h0.32c0.28,0,0.42-0.37,0.42-0.79V38.79h18.21v27.94c0,4.08-2.46,6.81-6.9,6.81H79.04V38.79z"/>
	<path d="M153.79,73.54h-36.93V38.79h36.93v19.65h-17.98V45.46h-0.74v13.72h18.72v6.72h-18.72v0.74h18.72V73.54z"/>
	<path d="M154.49,38.79h18.21v28.03h0.74V46.44h17.98v27.11h-36.93V38.79z"/>
	<path d="M192.03,45.6c0-4.08,2.5-6.81,6.9-6.81h30.26v27.94c0,4.08-2.5,6.81-6.95,6.81h-30.21V45.6z M210.57,66.83
		c0.28,0,0.42-0.37,0.42-0.79V45.46h-0.32c-0.28,0-0.42,0.42-0.42,0.83v20.53H210.57z"/>
	<path d="M229.85,38.79h37.16V64.6c0,3.75-2.78,6.63-6.77,6.63h-12.19v2.32h-18.21V38.79z M248.47,64.51c0.19,0,0.32-0.32,0.32-0.65
		v-18.4h-0.74v19.05H248.47z"/>
	<path d="M304.59,73.54h-36.93V38.79h36.93v19.65h-17.98V45.46h-0.74v13.72h18.72v6.72h-18.72v0.74h18.72V73.54z"/>
	<path d="M323.5,66.59v6.95h-18.21V38.79h37.16v18.86c0,2.18-0.93,4.03-2.46,5.24h2.5v10.66h-18.21v-6.95H323.5z M323.92,59.87
		c0.19,0,0.32-0.32,0.32-0.65V45.46h-0.74v14.41H323.92z"/>
</g>
</svg>
